<?xml version="1.0" encoding="UTF-8" standalone="no"?>
<!-- Created with Inkscape (http://www.inkscape.org/) -->

<svg
   xmlns:dc="http://purl.org/dc/elements/1.1/"
   xmlns:cc="http://creativecommons.org/ns#"
   xmlns:rdf="http://www.w3.org/1999/02/22-rdf-syntax-ns#"
   xmlns:svg="http://www.w3.org/2000/svg"
   xmlns="http://www.w3.org/2000/svg"
   xmlns:sodipodi="http://sodipodi.sourceforge.net/DTD/sodipodi-0.dtd"
   xmlns:inkscape="http://www.inkscape.org/namespaces/inkscape"
   width="66.628487mm"
   height="38.095058mm"
   viewBox="0 0 236.08519 134.98249"
   id="svg6328"
   version="1.1"
   inkscape:version="0.91 r13725"
   sodipodi:docname="logo.svg"
   inkscape:export-filename="/home/davidino/Lavoro/chainode/img/logo.png"
   inkscape:export-xdpi="38.121834"
   inkscape:export-ydpi="38.121834">
  <defs
     id="defs6330" />
  <sodipodi:namedview
     id="base"
     pagecolor="#ffffff"
     bordercolor="#666666"
     borderopacity="1.0"
     inkscape:pageopacity="0.0"
     inkscape:pageshadow="2"
     inkscape:zoom="1.2428876"
     inkscape:cx="238.21354"
     inkscape:cy="-114.45029"
     inkscape:document-units="px"
     inkscape:current-layer="layer1"
     showgrid="false"
     fit-margin-top="0"
     fit-margin-left="0"
     fit-margin-right="0"
     fit-margin-bottom="0"
     inkscape:window-width="1920"
     inkscape:window-height="1056"
     inkscape:window-x="0"
     inkscape:window-y="24"
     inkscape:window-maximized="1" />
  <metadata
     id="metadata6333">
    <rdf:RDF>
      <cc:Work
         rdf:about="">
        <dc:format>image/svg+xml</dc:format>
        <dc:type
           rdf:resource="http://purl.org/dc/dcmitype/StillImage" />
        <dc:title></dc:title>
      </cc:Work>
    </rdf:RDF>
  </metadata>
  <g
     inkscape:label="Livello 1"
     inkscape:groupmode="layer"
     id="layer1"
     transform="translate(1140.8997,-122.01382)">
    <path
       style="fill:#ffcc00;fill-opacity:0.55927052"
       id="path3055-2-4-2-2-7-7-3-1-4-7-2-4-2-6-82-9-6-3-8"
       inkscape:export-filename="new.png"
       inkscape:export-xdpi="250.55"
       inkscape:export-ydpi="250.55"
       inkscape:connector-curvature="0"
       class="st0"
       d="m -919.68357,239.85364 c 0.55604,-0.44628 1.00256,-1.05851 1.3366,-1.75524 l 13.09926,-31.18948 c 0.67709,-1.63759 0.56382,-3.78561 -0.36402,-5.79314 l -17.4765,-39.11575 c -0.81832,-1.84166 -2.18663,-3.3997 -3.73101,-4.36524 -0.18843,-0.11375 -0.37704,-0.22751 -0.56546,-0.34127 l -34.88331,-17.54751 c -1.85435,-0.91979 -3.66579,-0.91517 -5.0483,-0.002 l -26.07058,17.20332 c -1.38255,0.91231 -2.06264,2.63127 -1.98281,4.64262 l 2.41352,38.97354 c 0.11628,2.06663 1.0776,4.21081 2.59793,5.82736 l 29.08977,31.45249 c 1.52031,1.61655 3.44765,2.64692 5.18311,2.61312 l 33.8278,0.22343 c 0.99998,0.0545 1.85996,-0.27472 2.57399,-0.82524 z" />
    <path
       style="fill:#ffcc00;fill-opacity:0.55927052"
       id="path3055-2-4-2-2-7-7-3-1-4-7-2-4-2-6-82-9-6-3"
       inkscape:export-filename="new.png"
       inkscape:export-xdpi="250.55"
       inkscape:export-ydpi="250.55"
       inkscape:connector-curvature="0"
       class="st0"
       d="m -950.3219,131.91631 c -0.59318,-0.52799 -1.34832,-0.90495 -2.17543,-1.14274 l -36.68232,-8.60762 c -1.924,-0.44023 -4.26216,0.0822 -6.29509,1.4732 l -39.72226,26.44212 c -1.871,1.24 -3.3286,3.0315 -4.1029,4.90658 -0.09,0.22803 -0.1801,0.45625 -0.2701,0.68426 l -12.8087,41.56343 c -0.6666,2.20705 -0.3258,4.19569 0.9322,5.54507 l 23.7249,25.44542 c 1.2582,1.34939 3.2721,1.77784 5.4664,1.31747 l 42.35706,-9.87223 c 2.24821,-0.51069 4.42503,-1.96373 5.91875,-3.93303 l 29.15391,-37.77692 c 1.49373,-1.96928 2.26826,-4.27698 1.90957,-6.17675 l -6.02261,-37.19418 c -0.12541,-1.10837 -0.64637,-1.99187 -1.3833,-2.67408 z" />
    <path
       style="fill:#ffcc00;fill-opacity:0.55927052"
       id="path3055-2-4-2-2-7-7-3-1-4-7-2-4-2-6-82-9-0-6"
       inkscape:export-filename="new.png"
       inkscape:export-xdpi="250.55"
       inkscape:export-ydpi="250.55"
       inkscape:connector-curvature="0"
       class="st0"
       d="m -1132.5833,230.0209 c 0.6037,0.51591 1.3663,0.87756 2.198,1.09861 l 36.8486,7.86559 c 1.9325,0.40131 4.2596,-0.16821 6.2641,-1.59994 l 39.1805,-27.23833 c 1.8456,-1.27751 3.2668,-3.09806 4.0031,-4.98838 0.085,-0.2298 0.1708,-0.45979 0.2562,-0.68957 l 11.9673,-41.81346 c 0.6219,-2.22005 0.2411,-4.20141 -1.0439,-5.52512 l -24.2336,-24.96148 c -1.2851,-1.32372 -3.3073,-1.71144 -5.4918,-1.20689 l -42.1492,10.72504 c -2.2375,0.55595 -4.3845,2.05262 -5.8382,4.05167 l -28.3856,38.35757 c -1.4537,1.99902 -2.1815,4.32188 -1.7846,6.21403 l 6.772,37.06505 c 0.1478,1.10562 0.6865,1.97841 1.437,2.64561 z" />
    <path
       style="fill:#ffce09;fill-opacity:0.54711244"
       id="path3055-2-4-2-2-7-7-3-1-4-7-2-4-2-6-82-9-2-9"
       inkscape:export-filename="new.png"
       inkscape:export-xdpi="250.55"
       inkscape:export-ydpi="250.55"
       inkscape:connector-curvature="0"
       class="st0"
       d="m -982.9117,242.78987 c 0.42294,-0.67213 0.67022,-1.47909 0.76836,-2.33409 l 2.44078,-37.59953 c 0.11693,-1.97026 -0.78393,-4.19025 -2.49111,-5.96598 l -32.63043,-34.81806 c -1.5315,-1.64094 -3.5389,-2.78321 -5.516,-3.23771 -0.2397,-0.0512 -0.4797,-0.10231 -0.7194,-0.15349 l -43.1066,-5.77943 c -2.2868,-0.29353 -4.192,0.37046 -5.3154,1.83381 l -21.1848,27.59614 c -1.1235,1.46343 -1.214,3.52046 -0.3981,5.60875 l 16.7219,40.14925 c 0.8745,2.13322 2.6666,4.04062 4.8552,5.18915 l 42.0673,22.52529 c 2.1887,1.14854 4.5925,1.53192 6.4071,0.86486 l 35.69184,-12.07356 c 1.07253,-0.30646 1.85802,-0.96599 2.40937,-1.80532 z" />
  </g>
</svg>
